<svg width="273" height="83" viewBox="0 0 273 83" fill="none" xmlns="http://www.w3.org/2000/svg">
<path d="M67.34 39.512C71.636 39.512 74.828 40.592 76.916 42.752C79.004 44.888 80.048 47.96 80.048 51.968C80.048 54.584 79.532 56.876 78.5 58.844C77.492 60.788 76.016 62.3 74.072 63.38C72.128 64.46 69.776 65 67.016 65C66.656 65 66.176 64.988 65.576 64.964C64.976 64.94 64.352 64.928 63.704 64.928C63.08 64.904 62.504 64.892 61.976 64.892C61.136 64.892 60.308 64.904 59.492 64.928C58.676 64.928 58.016 64.952 57.512 65V64.28C58.328 64.232 58.94 64.136 59.348 63.992C59.78 63.848 60.068 63.56 60.212 63.128C60.356 62.696 60.428 62.048 60.428 61.184V43.328C60.428 42.44 60.356 41.792 60.212 41.384C60.068 40.952 59.78 40.664 59.348 40.52C58.94 40.352 58.328 40.256 57.512 40.232V39.512C58.016 39.536 58.676 39.572 59.492 39.62C60.308 39.644 61.112 39.644 61.904 39.62C62.744 39.596 63.692 39.572 64.748 39.548C65.804 39.524 66.668 39.512 67.34 39.512ZM66.44 40.16C65.336 40.16 64.616 40.364 64.28 40.772C63.944 41.18 63.776 42.008 63.776 43.256V61.256C63.776 62.504 63.944 63.332 64.28 63.74C64.64 64.148 65.372 64.352 66.476 64.352C69.092 64.352 71.12 63.884 72.56 62.948C74 61.988 75.008 60.596 75.584 58.772C76.16 56.948 76.448 54.728 76.448 52.112C76.448 49.424 76.124 47.204 75.476 45.452C74.852 43.676 73.808 42.356 72.344 41.492C70.904 40.604 68.936 40.16 66.44 40.16ZM86.4436 37.46C87.0676 37.46 87.6076 37.688 88.0636 38.144C88.5196 38.6 88.7476 39.14 88.7476 39.764C88.7476 40.388 88.5196 40.928 88.0636 41.384C87.6076 41.84 87.0676 42.068 86.4436 42.068C85.8196 42.068 85.2796 41.84 84.8236 41.384C84.3676 40.928 84.1396 40.388 84.1396 39.764C84.1396 39.14 84.3676 38.6 84.8236 38.144C85.2796 37.688 85.8196 37.46 86.4436 37.46ZM88.3156 46.064V61.652C88.3156 62.66 88.5196 63.344 88.9276 63.704C89.3596 64.064 90.0676 64.244 91.0516 64.244V65C90.6436 64.976 90.0196 64.952 89.1796 64.928C88.3636 64.88 87.5356 64.856 86.6956 64.856C85.8796 64.856 85.0516 64.88 84.2116 64.928C83.3716 64.952 82.7476 64.976 82.3396 65V64.244C83.3236 64.244 84.0196 64.064 84.4276 63.704C84.8596 63.344 85.0756 62.66 85.0756 61.652V50.384C85.0756 49.304 84.8836 48.512 84.4996 48.008C84.1156 47.48 83.3956 47.216 82.3396 47.216V46.46C83.1076 46.532 83.8516 46.568 84.5716 46.568C85.2676 46.568 85.9276 46.532 86.5516 46.46C87.1996 46.364 87.7876 46.232 88.3156 46.064ZM97.2785 65.252C96.2945 65.252 95.4425 65.072 94.7225 64.712C94.0025 64.328 93.4505 63.8 93.0665 63.128C92.7065 62.456 92.5265 61.676 92.5265 60.788C92.5265 59.732 92.7665 58.868 93.2465 58.196C93.7505 57.524 94.3865 56.984 95.1545 56.576C95.9225 56.168 96.7265 55.832 97.5665 55.568C98.4305 55.28 99.2465 55.016 100.015 54.776C100.783 54.512 101.407 54.212 101.887 53.876C102.391 53.54 102.643 53.096 102.643 52.544V50.312C102.643 49.304 102.487 48.536 102.175 48.008C101.887 47.48 101.491 47.132 100.987 46.964C100.483 46.772 99.9185 46.676 99.2945 46.676C98.6945 46.676 98.0465 46.76 97.3505 46.928C96.6785 47.096 96.1385 47.444 95.7305 47.972C96.1865 48.068 96.5825 48.308 96.9185 48.692C97.2545 49.076 97.4225 49.568 97.4225 50.168C97.4225 50.768 97.2305 51.248 96.8465 51.608C96.4625 51.944 95.9705 52.112 95.3705 52.112C94.6745 52.112 94.1585 51.896 93.8225 51.464C93.5105 51.008 93.3545 50.504 93.3545 49.952C93.3545 49.328 93.5105 48.824 93.8225 48.44C94.1345 48.056 94.5305 47.696 95.0105 47.36C95.5625 46.976 96.2705 46.652 97.1345 46.388C98.0225 46.1 99.0185 45.956 100.123 45.956C101.107 45.956 101.947 46.076 102.643 46.316C103.339 46.532 103.915 46.856 104.371 47.288C104.995 47.864 105.403 48.572 105.595 49.412C105.787 50.228 105.883 51.212 105.883 52.364V62.372C105.883 62.972 105.967 63.404 106.135 63.668C106.327 63.932 106.615 64.064 106.999 64.064C107.263 64.064 107.515 64.004 107.755 63.884C107.995 63.764 108.283 63.572 108.619 63.308L109.015 63.92C108.511 64.304 108.031 64.628 107.575 64.892C107.119 65.132 106.507 65.252 105.739 65.252C105.043 65.252 104.467 65.132 104.011 64.892C103.555 64.652 103.207 64.304 102.967 63.848C102.751 63.368 102.643 62.768 102.643 62.048C101.995 63.128 101.215 63.932 100.303 64.46C99.4145 64.988 98.4065 65.252 97.2785 65.252ZM98.5745 63.812C99.3665 63.812 100.099 63.584 100.771 63.128C101.467 62.672 102.091 61.988 102.643 61.076V54.02C102.355 54.428 101.935 54.776 101.383 55.064C100.831 55.328 100.231 55.604 99.5825 55.892C98.9345 56.156 98.3105 56.48 97.7105 56.864C97.1345 57.224 96.6545 57.704 96.2705 58.304C95.8865 58.904 95.6945 59.684 95.6945 60.644C95.6945 61.604 95.9465 62.372 96.4505 62.948C96.9785 63.524 97.6865 63.812 98.5745 63.812ZM121.472 45.956C122.384 45.956 123.14 46.076 123.74 46.316C124.364 46.556 124.88 46.892 125.288 47.324C125.744 47.804 126.068 48.404 126.26 49.124C126.452 49.844 126.548 50.816 126.548 52.04V61.652C126.548 62.66 126.752 63.344 127.16 63.704C127.592 64.064 128.3 64.244 129.284 64.244V65C128.876 64.976 128.252 64.952 127.412 64.928C126.572 64.88 125.756 64.856 124.964 64.856C124.172 64.856 123.392 64.88 122.624 64.928C121.88 64.952 121.316 64.976 120.932 65V64.244C121.796 64.244 122.408 64.064 122.768 63.704C123.128 63.344 123.308 62.66 123.308 61.652V51.248C123.308 50.504 123.248 49.82 123.128 49.196C123.008 48.572 122.732 48.068 122.3 47.684C121.892 47.3 121.256 47.108 120.392 47.108C119.384 47.108 118.496 47.396 117.728 47.972C116.984 48.548 116.396 49.34 115.964 50.348C115.556 51.332 115.352 52.436 115.352 53.66V61.652C115.352 62.66 115.532 63.344 115.892 63.704C116.252 64.064 116.864 64.244 117.728 64.244V65C117.344 64.976 116.768 64.952 116 64.928C115.256 64.88 114.488 64.856 113.696 64.856C112.904 64.856 112.088 64.88 111.248 64.928C110.408 64.952 109.784 64.976 109.376 65V64.244C110.36 64.244 111.056 64.064 111.464 63.704C111.896 63.344 112.112 62.66 112.112 61.652V50.384C112.112 49.304 111.92 48.512 111.536 48.008C111.152 47.48 110.432 47.216 109.376 47.216V46.46C110.144 46.532 110.888 46.568 111.608 46.568C112.304 46.568 112.964 46.532 113.588 46.46C114.236 46.364 114.824 46.232 115.352 46.064V50.312C115.976 48.68 116.84 47.552 117.944 46.928C119.072 46.28 120.248 45.956 121.472 45.956ZM135.249 65.252C134.265 65.252 133.413 65.072 132.693 64.712C131.973 64.328 131.421 63.8 131.037 63.128C130.677 62.456 130.497 61.676 130.497 60.788C130.497 59.732 130.737 58.868 131.217 58.196C131.721 57.524 132.357 56.984 133.125 56.576C133.893 56.168 134.697 55.832 135.537 55.568C136.401 55.28 137.217 55.016 137.985 54.776C138.753 54.512 139.377 54.212 139.857 53.876C140.361 53.54 140.613 53.096 140.613 52.544V50.312C140.613 49.304 140.457 48.536 140.145 48.008C139.857 47.48 139.461 47.132 138.957 46.964C138.453 46.772 137.889 46.676 137.265 46.676C136.665 46.676 136.017 46.76 135.321 46.928C134.649 47.096 134.109 47.444 133.701 47.972C134.157 48.068 134.553 48.308 134.889 48.692C135.225 49.076 135.393 49.568 135.393 50.168C135.393 50.768 135.201 51.248 134.817 51.608C134.433 51.944 133.941 52.112 133.341 52.112C132.645 52.112 132.129 51.896 131.793 51.464C131.481 51.008 131.325 50.504 131.325 49.952C131.325 49.328 131.481 48.824 131.793 48.44C132.105 48.056 132.501 47.696 132.981 47.36C133.533 46.976 134.241 46.652 135.105 46.388C135.993 46.1 136.989 45.956 138.093 45.956C139.077 45.956 139.917 46.076 140.613 46.316C141.309 46.532 141.885 46.856 142.341 47.288C142.965 47.864 143.373 48.572 143.565 49.412C143.757 50.228 143.853 51.212 143.853 52.364V62.372C143.853 62.972 143.937 63.404 144.105 63.668C144.297 63.932 144.585 64.064 144.969 64.064C145.233 64.064 145.485 64.004 145.725 63.884C145.965 63.764 146.253 63.572 146.589 63.308L146.985 63.92C146.481 64.304 146.001 64.628 145.545 64.892C145.089 65.132 144.477 65.252 143.709 65.252C143.013 65.252 142.437 65.132 141.981 64.892C141.525 64.652 141.177 64.304 140.937 63.848C140.721 63.368 140.613 62.768 140.613 62.048C139.965 63.128 139.185 63.932 138.273 64.46C137.385 64.988 136.377 65.252 135.249 65.252ZM136.545 63.812C137.337 63.812 138.069 63.584 138.741 63.128C139.437 62.672 140.061 61.988 140.613 61.076V54.02C140.325 54.428 139.905 54.776 139.353 55.064C138.801 55.328 138.201 55.604 137.553 55.892C136.905 56.156 136.281 56.48 135.681 56.864C135.105 57.224 134.625 57.704 134.241 58.304C133.857 58.904 133.665 59.684 133.665 60.644C133.665 61.604 133.917 62.372 134.421 62.948C134.949 63.524 135.657 63.812 136.545 63.812ZM164.817 39.512V40.232C164.001 40.256 163.377 40.352 162.945 40.52C162.537 40.664 162.261 40.952 162.117 41.384C161.973 41.792 161.901 42.44 161.901 43.328V61.184C161.901 62.048 161.973 62.696 162.117 63.128C162.261 63.56 162.537 63.848 162.945 63.992C163.377 64.112 164.001 64.172 164.817 64.172H167.445C168.573 64.172 169.485 64.052 170.181 63.812C170.901 63.572 171.465 63.2 171.873 62.696C172.305 62.168 172.629 61.472 172.845 60.608C173.061 59.744 173.229 58.688 173.349 57.44H174.177C174.105 58.184 174.069 59.168 174.069 60.392C174.069 60.848 174.081 61.508 174.105 62.372C174.153 63.212 174.225 64.088 174.321 65C173.097 64.952 171.717 64.928 170.181 64.928C168.645 64.904 167.277 64.892 166.077 64.892C165.549 64.892 164.865 64.892 164.025 64.892C163.209 64.892 162.321 64.904 161.361 64.928C160.401 64.928 159.429 64.94 158.445 64.964C157.461 64.964 156.525 64.976 155.637 65V64.28C156.453 64.232 157.065 64.136 157.473 63.992C157.905 63.848 158.193 63.56 158.337 63.128C158.481 62.696 158.553 62.048 158.553 61.184V43.328C158.553 42.44 158.481 41.792 158.337 41.384C158.193 40.952 157.905 40.664 157.473 40.52C157.065 40.352 156.453 40.256 155.637 40.232V39.512C156.141 39.536 156.801 39.56 157.617 39.584C158.433 39.608 159.309 39.62 160.245 39.62C161.085 39.62 161.913 39.608 162.729 39.584C163.569 39.56 164.265 39.536 164.817 39.512ZM181.337 36.776V61.652C181.337 62.66 181.541 63.344 181.949 63.704C182.381 64.064 183.089 64.244 184.073 64.244V65C183.665 64.976 183.041 64.952 182.201 64.928C181.385 64.88 180.557 64.856 179.717 64.856C178.901 64.856 178.073 64.88 177.233 64.928C176.393 64.952 175.769 64.976 175.361 65V64.244C176.345 64.244 177.041 64.064 177.449 63.704C177.881 63.344 178.097 62.66 178.097 61.652V41.096C178.097 40.016 177.905 39.224 177.521 38.72C177.137 38.192 176.417 37.928 175.361 37.928V37.172C176.129 37.244 176.873 37.28 177.593 37.28C178.289 37.28 178.949 37.244 179.573 37.172C180.221 37.076 180.809 36.944 181.337 36.776ZM193.591 45.956C195.703 45.956 197.347 46.604 198.523 47.9C199.723 49.172 200.323 51.164 200.323 53.876H187.615L187.579 53.192H196.867C196.915 52.016 196.819 50.936 196.579 49.952C196.339 48.944 195.955 48.14 195.427 47.54C194.923 46.94 194.263 46.64 193.447 46.64C192.343 46.64 191.359 47.192 190.495 48.296C189.655 49.4 189.151 51.152 188.983 53.552L189.091 53.696C189.043 54.056 189.007 54.452 188.983 54.884C188.959 55.316 188.947 55.748 188.947 56.18C188.947 57.812 189.211 59.216 189.739 60.392C190.267 61.568 190.951 62.468 191.791 63.092C192.655 63.692 193.543 63.992 194.455 63.992C195.175 63.992 195.859 63.884 196.507 63.668C197.155 63.428 197.755 63.044 198.307 62.516C198.859 61.988 199.339 61.28 199.747 60.392L200.467 60.68C200.203 61.472 199.771 62.24 199.171 62.984C198.571 63.728 197.815 64.34 196.903 64.82C195.991 65.276 194.935 65.504 193.735 65.504C192.007 65.504 190.519 65.108 189.271 64.316C188.047 63.524 187.099 62.432 186.427 61.04C185.779 59.624 185.455 58.004 185.455 56.18C185.455 54.068 185.791 52.256 186.463 50.744C187.135 49.208 188.083 48.032 189.307 47.216C190.531 46.376 191.959 45.956 193.591 45.956ZM213.53 45.956C214.178 45.956 214.742 46.088 215.222 46.352C215.726 46.616 216.11 46.964 216.374 47.396C216.662 47.804 216.806 48.272 216.806 48.8C216.806 49.4 216.614 49.928 216.23 50.384C215.87 50.84 215.378 51.068 214.754 51.068C214.25 51.068 213.806 50.912 213.422 50.6C213.038 50.264 212.846 49.796 212.846 49.196C212.846 48.74 212.966 48.356 213.206 48.044C213.47 47.708 213.758 47.444 214.07 47.252C213.902 47.012 213.65 46.892 213.314 46.892C212.57 46.892 211.886 47.12 211.262 47.576C210.638 48.008 210.11 48.572 209.678 49.268C209.246 49.964 208.91 50.708 208.67 51.5C208.43 52.268 208.31 52.988 208.31 53.66V61.292C208.31 62.468 208.646 63.26 209.318 63.668C210.014 64.052 210.95 64.244 212.126 64.244V65C211.574 64.976 210.794 64.952 209.786 64.928C208.778 64.88 207.71 64.856 206.582 64.856C205.766 64.856 204.95 64.88 204.134 64.928C203.342 64.952 202.742 64.976 202.334 65V64.244C203.318 64.244 204.014 64.064 204.422 63.704C204.854 63.344 205.07 62.66 205.07 61.652V50.384C205.07 49.304 204.878 48.512 204.494 48.008C204.11 47.48 203.39 47.216 202.334 47.216V46.46C203.102 46.532 203.846 46.568 204.566 46.568C205.262 46.568 205.922 46.532 206.546 46.46C207.194 46.364 207.782 46.232 208.31 46.064V50.564C208.574 49.868 208.946 49.172 209.426 48.476C209.93 47.756 210.53 47.156 211.226 46.676C211.922 46.196 212.69 45.956 213.53 45.956ZM225.69 45.956C227.802 45.956 229.446 46.604 230.622 47.9C231.822 49.172 232.422 51.164 232.422 53.876H219.714L219.678 53.192H228.966C229.014 52.016 228.918 50.936 228.678 49.952C228.438 48.944 228.054 48.14 227.526 47.54C227.022 46.94 226.362 46.64 225.546 46.64C224.442 46.64 223.458 47.192 222.594 48.296C221.754 49.4 221.25 51.152 221.082 53.552L221.19 53.696C221.142 54.056 221.106 54.452 221.082 54.884C221.058 55.316 221.046 55.748 221.046 56.18C221.046 57.812 221.31 59.216 221.838 60.392C222.366 61.568 223.05 62.468 223.89 63.092C224.754 63.692 225.642 63.992 226.554 63.992C227.274 63.992 227.958 63.884 228.606 63.668C229.254 63.428 229.854 63.044 230.406 62.516C230.958 61.988 231.438 61.28 231.846 60.392L232.566 60.68C232.302 61.472 231.87 62.24 231.27 62.984C230.67 63.728 229.914 64.34 229.002 64.82C228.09 65.276 227.034 65.504 225.834 65.504C224.106 65.504 222.618 65.108 221.37 64.316C220.146 63.524 219.198 62.432 218.526 61.04C217.878 59.624 217.554 58.004 217.554 56.18C217.554 54.068 217.89 52.256 218.562 50.744C219.234 49.208 220.182 48.032 221.406 47.216C222.63 46.376 224.058 45.956 225.69 45.956ZM246.529 45.956C247.441 45.956 248.197 46.076 248.797 46.316C249.421 46.556 249.937 46.892 250.345 47.324C250.801 47.804 251.125 48.404 251.317 49.124C251.509 49.844 251.605 50.816 251.605 52.04V61.652C251.605 62.66 251.809 63.344 252.217 63.704C252.649 64.064 253.357 64.244 254.341 64.244V65C253.933 64.976 253.309 64.952 252.469 64.928C251.629 64.88 250.813 64.856 250.021 64.856C249.229 64.856 248.449 64.88 247.681 64.928C246.937 64.952 246.373 64.976 245.989 65V64.244C246.853 64.244 247.465 64.064 247.825 63.704C248.185 63.344 248.365 62.66 248.365 61.652V51.248C248.365 50.504 248.305 49.82 248.185 49.196C248.065 48.572 247.789 48.068 247.357 47.684C246.949 47.3 246.313 47.108 245.449 47.108C244.441 47.108 243.553 47.396 242.785 47.972C242.041 48.548 241.453 49.34 241.021 50.348C240.613 51.332 240.409 52.436 240.409 53.66V61.652C240.409 62.66 240.589 63.344 240.949 63.704C241.309 64.064 241.921 64.244 242.785 64.244V65C242.401 64.976 241.825 64.952 241.057 64.928C240.313 64.88 239.545 64.856 238.753 64.856C237.961 64.856 237.145 64.88 236.305 64.928C235.465 64.952 234.841 64.976 234.433 65V64.244C235.417 64.244 236.113 64.064 236.521 63.704C236.953 63.344 237.169 62.66 237.169 61.652V50.384C237.169 49.304 236.977 48.512 236.593 48.008C236.209 47.48 235.489 47.216 234.433 47.216V46.46C235.201 46.532 235.945 46.568 236.665 46.568C237.361 46.568 238.021 46.532 238.645 46.46C239.293 46.364 239.881 46.232 240.409 46.064V50.312C241.033 48.68 241.897 47.552 243.001 46.928C244.129 46.28 245.305 45.956 246.529 45.956ZM260.305 65.252C259.321 65.252 258.469 65.072 257.749 64.712C257.029 64.328 256.477 63.8 256.093 63.128C255.733 62.456 255.553 61.676 255.553 60.788C255.553 59.732 255.793 58.868 256.273 58.196C256.777 57.524 257.413 56.984 258.181 56.576C258.949 56.168 259.753 55.832 260.593 55.568C261.457 55.28 262.273 55.016 263.041 54.776C263.809 54.512 264.433 54.212 264.913 53.876C265.417 53.54 265.669 53.096 265.669 52.544V50.312C265.669 49.304 265.513 48.536 265.201 48.008C264.913 47.48 264.517 47.132 264.013 46.964C263.509 46.772 262.945 46.676 262.321 46.676C261.721 46.676 261.073 46.76 260.377 46.928C259.705 47.096 259.165 47.444 258.757 47.972C259.213 48.068 259.609 48.308 259.945 48.692C260.281 49.076 260.449 49.568 260.449 50.168C260.449 50.768 260.257 51.248 259.873 51.608C259.489 51.944 258.997 52.112 258.397 52.112C257.701 52.112 257.185 51.896 256.849 51.464C256.537 51.008 256.381 50.504 256.381 49.952C256.381 49.328 256.537 48.824 256.849 48.44C257.161 48.056 257.557 47.696 258.037 47.36C258.589 46.976 259.297 46.652 260.161 46.388C261.049 46.1 262.045 45.956 263.149 45.956C264.133 45.956 264.973 46.076 265.669 46.316C266.365 46.532 266.941 46.856 267.397 47.288C268.021 47.864 268.429 48.572 268.621 49.412C268.813 50.228 268.909 51.212 268.909 52.364V62.372C268.909 62.972 268.993 63.404 269.161 63.668C269.353 63.932 269.641 64.064 270.025 64.064C270.289 64.064 270.541 64.004 270.781 63.884C271.021 63.764 271.309 63.572 271.645 63.308L272.041 63.92C271.537 64.304 271.057 64.628 270.601 64.892C270.145 65.132 269.533 65.252 268.765 65.252C268.069 65.252 267.493 65.132 267.037 64.892C266.581 64.652 266.233 64.304 265.993 63.848C265.777 63.368 265.669 62.768 265.669 62.048C265.021 63.128 264.241 63.932 263.329 64.46C262.441 64.988 261.433 65.252 260.305 65.252ZM261.601 63.812C262.393 63.812 263.125 63.584 263.797 63.128C264.493 62.672 265.117 61.988 265.669 61.076V54.02C265.381 54.428 264.961 54.776 264.409 55.064C263.857 55.328 263.257 55.604 262.609 55.892C261.961 56.156 261.337 56.48 260.737 56.864C260.161 57.224 259.681 57.704 259.297 58.304C258.913 58.904 258.721 59.684 258.721 60.644C258.721 61.604 258.973 62.372 259.477 62.948C260.005 63.524 260.713 63.812 261.601 63.812Z" fill="#0E1112"/>
<circle cx="25.5" cy="51.5" r="22.5" fill="#B7CAD5"/>
<path d="M17.608 34.078C19.22 34.078 20.6873 34.264 22.01 34.636C23.374 34.9667 24.49 35.4007 25.358 35.938C26.4327 36.5993 27.2593 37.426 27.838 38.418C28.458 39.3687 28.768 40.4847 28.768 41.766C28.768 43.2127 28.3133 44.4113 27.404 45.362C26.4947 46.2713 25.3167 46.726 23.87 46.726C22.4233 46.726 21.266 46.3127 20.398 45.486C19.53 44.6593 19.096 43.5433 19.096 42.138C19.096 40.8153 19.5093 39.72 20.336 38.852C21.1627 37.9427 22.1133 37.3433 23.188 37.054C22.8573 36.6407 22.3613 36.2893 21.7 36C21.0387 35.7107 20.2947 35.566 19.468 35.566C18.1867 35.566 17.05 35.938 16.058 36.682C15.1073 37.426 14.3013 38.4593 13.64 39.782C12.9787 41.1047 12.462 42.6547 12.09 44.432C11.7593 46.2093 11.594 48.152 11.594 50.26C11.594 53.4427 11.9867 55.9433 12.772 57.762C13.5987 59.5807 14.632 60.862 15.872 61.606C17.1533 62.35 18.476 62.722 19.84 62.722C20.6253 62.722 21.4727 62.598 22.382 62.35C23.3327 62.102 24.2833 61.606 25.234 60.862C26.226 60.118 27.1353 59.064 27.962 57.7L29.016 58.072C28.5613 59.6013 27.8173 61.1307 26.784 62.66C25.7507 64.1893 24.4073 65.45 22.754 66.442C21.1007 67.3927 19.0753 67.868 16.678 67.868C13.9913 67.868 11.5527 67.2893 9.362 66.132C7.21267 64.9333 5.47667 63.1147 4.154 60.676C2.87267 58.196 2.232 55.0133 2.232 51.128C2.232 47.408 2.89333 44.2873 4.216 41.766C5.58 39.2033 7.41933 37.2813 9.734 36C12.0487 34.7187 14.6733 34.078 17.608 34.078Z" fill="white"/>
</svg>
